<svg id="visual" viewBox="0 0 900 600" width="900" height="600" xmlns="http://www.w3.org/2000/svg" xmlns:xlink="http://www.w3.org/1999/xlink" version="1.1"><path d="M755 600L753.5 587.5C752 575 749 550 711.5 525C674 500 602 475 581 450C560 425 590 400 606.5 375C623 350 626 325 650 300C674 275 719 250 728 225C737 200 710 175 710 150C710 125 737 100 719 75C701 50 638 25 606.5 12.5L575 0L900 0L900 12.5C900 25 900 50 900 75C900 100 900 125 900 150C900 175 900 200 900 225C900 250 900 275 900 300C900 325 900 350 900 375C900 400 900 425 900 450C900 475 900 500 900 525C900 550 900 575 900 587.5L900 600Z" fill="#c28abd"></path><path d="M386 600L390.5 587.5C395 575 404 550 399.5 525C395 500 377 475 390.5 450C404 425 449 400 444.5 375C440 350 386 325 372.5 300C359 275 386 250 381.5 225C377 200 341 175 336.5 150C332 125 359 100 369.5 75C380 50 374 25 371 12.5L368 0L576 0L607.5 12.5C639 25 702 50 720 75C738 100 711 125 711 150C711 175 738 200 729 225C720 250 675 275 651 300C627 325 624 350 607.5 375C591 400 561 425 582 450C603 475 675 500 712.5 525C750 550 753 575 754.5 587.5L756 600Z" fill="#b471af"></path><path d="M269 600L269 587.5C269 575 269 550 270.5 525C272 500 275 475 284 450C293 425 308 400 294.5 375C281 350 239 325 225.5 300C212 275 227 250 221 225C215 200 188 175 200 150C212 125 263 100 270.5 75C278 50 242 25 224 12.5L206 0L369 0L372 12.5C375 25 381 50 370.5 75C360 100 333 125 337.5 150C342 175 378 200 382.5 225C387 250 360 275 373.5 300C387 325 441 350 445.5 375C450 400 405 425 391.5 450C378 475 396 500 400.5 525C405 550 396 575 391.5 587.5L387 600Z" fill="#a658a1"></path><path d="M98 600L90.5 587.5C83 575 68 550 68 525C68 500 83 475 95 450C107 425 116 400 111.5 375C107 350 89 325 83 300C77 275 83 250 81.5 225C80 200 71 175 65 150C59 125 56 100 57.5 75C59 50 65 25 68 12.5L71 0L207 0L225 12.5C243 25 279 50 271.5 75C264 100 213 125 201 150C189 175 216 200 222 225C228 250 213 275 226.5 300C240 325 282 350 295.5 375C309 400 294 425 285 450C276 475 273 500 271.5 525C270 550 270 575 270 587.5L270 600Z" fill="#8f4c8b"></path><path d="M0 600L0 587.5C0 575 0 550 0 525C0 500 0 475 0 450C0 425 0 400 0 375C0 350 0 325 0 300C0 275 0 250 0 225C0 200 0 175 0 150C0 125 0 100 0 75C0 50 0 25 0 12.5L0 0L72 0L69 12.5C66 25 60 50 58.5 75C57 100 60 125 66 150C72 175 81 200 82.5 225C84 250 78 275 84 300C90 325 108 350 112.5 375C117 400 108 425 96 450C84 475 69 500 69 525C69 550 84 575 91.5 587.5L99 600Z" fill="#794176"></path></svg>