<?xml version="1.0" encoding="utf-8"?>
<!-- Generator: Adobe Illustrator 27.2.0, SVG Export Plug-In . SVG Version: 6.00 Build 0)  -->
<svg version="1.1" xmlns="http://www.w3.org/2000/svg" xmlns:xlink="http://www.w3.org/1999/xlink" x="0px" y="0px"
	 viewBox="0 0 300 300" style="enable-background:new 0 0 300 300;" xml:space="preserve">
<style type="text/css">
	.st0{clip-path:url(#SVGID_00000137834397089549930460000005436312346259422383_);fill:#BF0436;}
</style>
<g id="Camada_2">
</g>
<g id="Camada_3">
	<g>
		<defs>
			<path id="SVGID_1_" d="M254.6,27.9c4.2-8.7,2.8-12.5-5.6-17c-2.6-1.4-5.2-2.7-7.8-3.8c-9.1-3.8-13-2.1-17.3,6.9
				c-10.4,21.7-20.9,43.5-31.5,65.2c-1,2-3.3,3.5-5,5.2c-1.4-2-3.3-3.8-4.1-6c-9.4-26.6-34.8-42.2-60.7-37.2
				c-27.8,5.3-46,29.3-44.6,58.2c0.2,3.4-2.1,7.2-3.8,10.4c-4.3,8.4-8.9,16.8-13.6,25c-1.6,2.8-3.7,6.1-6.5,7.5
				c-11.3,5.6-15.1,21-4.9,27c9.4,5.5,9,13,9.5,21.1c2.1,31.7,4.3,63.3,6.3,94.9c0.4,6.9,3.1,9.5,10.3,9.4c23-0.4,46-0.1,68.9-0.1
				c20.7,0,41.3,0.1,62,0c17.7-0.1,17,3.2,18.4-17.3c2.2-30.8,4-61.5,6.1-92.3c0.4-5.7,0.9-10.6,7.3-14.3
				c11.3-6.6,9.6-22.7-2.7-27.8c-4.1-1.7-5.5-3.3-6.3-7.6c-1.7-8.7-3.8-17.6-7.5-25.6c-2.4-5.2-2.3-8.6,0.1-13.4
				C232.7,73.6,243.6,50.7,254.6,27.9L254.6,27.9z M234.3,15.2c4.3,2,8.2,3.7,11.9,5.4c-2.3,8-9.1,12-20.4,12
				C228.6,26.8,231.2,21.5,234.3,15.2L234.3,15.2z M218.3,80.2c-2.5,5.3-4.8,10.3-7.4,15.6c-4.4-2.7-7.8-4.9-11.2-6.9
				C202.1,79.6,203.9,78.7,218.3,80.2z M195,97.3c16.1,7.5,26.3,25.7,23.5,43.6c-15.8,0-31.1,0.1-46.5-0.2c-2,0-4.9-1.8-5.8-3.5
				c-5.7-11.1-10.9-22.5-16.7-34.8C158,92.8,178.6,89.7,195,97.3L195,97.3z M173.4,82.3c-6.9,1.8-13.9,3.7-22.3,5.9
				c-5.5-12.2-11-24.2-16.5-36.5C152.5,50.6,168.7,63.6,173.4,82.3L173.4,82.3z M112.2,54.8c4.1-1.4,9.4-6.9,12.8-0.3
				c6.1,11.8,11,24.3,16.4,36.5c0.2,0.5,0.4,1.1,1,2.8c-1.4,1.2-3,3.5-5.1,4.1c-4.3,1.2-18.4-7.2-20.4-11.5
				c-3.4-7.4-6.6-14.9-10.2-22.1C103.8,58.2,108.4,56.1,112.2,54.8L112.2,54.8z M94.7,68c1.1,0.1,2.1,0.1,3.2,0.2
				c3.4,7.5,6.9,15,10.9,23.7C101.9,94,95.7,96,89.4,98c-1-0.4-2.1-0.9-3.1-1.3C89.1,87.1,91.9,77.6,94.7,68L94.7,68z M112.5,102.8
				c24.2-0.2,42.3,18.3,43.4,37.6H70.7C71.1,120.6,90.6,102.9,112.5,102.8z M213.9,284.9h-139c-0.3-4.9-0.5-9.4-0.8-14.6h140.6
				C214.4,275.4,214.1,279.9,213.9,284.9z M215.8,258.8H73.1c-2-28-4.1-55.7-6.1-84.3h154.8C219.8,202.6,217.8,230.2,215.8,258.8
				L215.8,258.8z M235.2,157c0.4,7-5.1,7.4-10.3,7.4c-53.9,0-107.7,0.1-161.6-0.2c-3.2,0-8.3-2.8-9.2-5.4c-2-6.1,2.5-7.8,8.1-7.8
				c13.7,0,27.4,0,41.1,0h41.1c26.8,0,53.6,0,80.4,0C229.3,151,234.8,150.5,235.2,157L235.2,157z M208.2,69.3
				c3.8-8,6.4-16.5,11.5-23.1c2.5-3.3,9.5-3.1,15.9-4.9C229.4,65.5,224.9,69.9,208.2,69.3z M224.6,151c-26.8,0-53.6,0-80.4,0h-41.1
				c13.7,0,27.4,0,41.1,0H224.6z M145,189.5c-14.8-0.3-27.4,11.5-28.2,26.5c-0.7,15,11.4,27.8,27,28.4c14.7,0.5,27.3-11.3,28.1-26.3
				C172.7,203.1,160.2,189.9,145,189.5L145,189.5z M144.1,234.7c-9.9-0.1-17.4-7.9-17.3-17.9c0.1-10.1,7.7-17.4,17.9-17.3
				c10.2,0.1,17.5,7.6,17.2,17.9C161.7,227.5,154.3,234.7,144.1,234.7z M117.4,116.9c0.1,1.9-1.9,3.9-3.8,7.5
				c-2.6-3.2-5.1-5-5.1-6.8c0.1-1.7,2.6-4.1,4.5-4.6C114.2,112.7,117.3,115.4,117.4,116.9z M205.4,127.2c-1.7,1.2-4.4,3.8-4.8,3.5
				c-3.3-2.7-6.2-5.8-8.9-9.1c-0.2-0.3,2.5-2.8,5.1-5.8C200.2,120.4,202.8,123.9,205.4,127.2L205.4,127.2z M183,109
				c-2,3.5-4.8,6.5-8.3,10.9c-2.3-3.3-4.8-6.1-4.4-6.5c2.7-3.3,6-6.1,9.1-9.1C180.7,105.9,183.4,108.4,183,109L183,109z"/>
		</defs>
		<clipPath id="SVGID_00000012443664604181416100000016462462183861492402_">
			<use xlink:href="#SVGID_1_"  style="overflow:visible;"/>
		</clipPath>

			<rect style="clip-path:url(#SVGID_00000012443664604181416100000016462462183861492402_);fill:#BF0436;" width="300" height="300"/>
	</g>
</g>
</svg>
