<?xml version="1.0" encoding="utf-8"?>
<!-- Generator: Adobe Illustrator 27.2.0, SVG Export Plug-In . SVG Version: 6.00 Build 0)  -->
<svg version="1.1" xmlns="http://www.w3.org/2000/svg" xmlns:xlink="http://www.w3.org/1999/xlink" x="0px" y="0px"
	 viewBox="0 0 300 300" style="enable-background:new 0 0 300 300;" xml:space="preserve">
<style type="text/css">
	
		.st0{clip-path:url(#SVGID_00000104681528999454101910000015080418532287718300_);fill:url(#SVGID_00000021111243650212213410000002158337157528599700_);}
	
		.st1{clip-path:url(#SVGID_00000104681528999454101910000015080418532287718300_);fill:url(#SVGID_00000155121548598301234580000017402696191377627530_);}
</style>
<g id="Camada_3">
</g>
<g id="Camada_1">
	<g>
		<defs>
			<path id="SVGID_1_" d="M292.8,96.9c1.5-3.2,1-4.6-2.1-6.3c-1-0.5-1.9-1-2.9-1.4c-3.4-1.4-4.8-0.8-6.4,2.6
				c-3.9,8.1-7.8,16.2-11.7,24.3c-0.4,0.8-1.2,1.3-1.9,1.9c-0.5-0.7-1.2-1.4-1.5-2.2c-3.5-9.9-13-15.7-22.6-13.9
				c-10.4,2-17.1,10.9-16.6,21.7c0.1,1.3-0.8,2.7-1.4,3.9c-1.6,3.1-3.3,6.3-5.1,9.3c-0.6,1.1-1.4,2.3-2.4,2.8
				c-4.2,2.1-5.6,7.8-1.8,10c3.5,2.1,3.3,4.8,3.5,7.9c0.8,11.8,1.6,23.6,2.3,35.4c0.2,2.6,1.2,3.5,3.8,3.5
				c8.6-0.1,17.1-0.1,25.7-0.1c7.7,0,15.4,0,23.1,0c6.6,0,6.3,1.2,6.9-6.4c0.8-11.5,1.5-22.9,2.3-34.4c0.1-2.1,0.3-4,2.7-5.3
				c4.2-2.5,3.6-8.5-1-10.4c-1.5-0.6-2-1.2-2.3-2.8c-0.6-3.2-1.4-6.6-2.8-9.5c-0.9-1.9-0.8-3.2,0-5
				C284.6,113.9,288.7,105.4,292.8,96.9z M285.2,92.1c1.6,0.7,3,1.4,4.4,2c-1.3,4.5-1.3,4.5-7.6,4.5
				C283.1,96.5,284.1,94.5,285.2,92.1z M279.3,116.4c-0.9,2-1.8,3.8-2.7,5.8c-1.7-1-2.9-1.8-4.2-2.6
				C273.2,116.1,273.9,115.8,279.3,116.4z M270.6,122.7c6,2.8,9.8,9.6,8.7,16.3c-5.9,0-11.6,0.1-17.3-0.1c-0.7,0-1.8-0.7-2.2-1.3
				c-2.1-4.2-4.1-8.4-6.2-13C256.8,121.1,264.5,119.9,270.6,122.7z M262.6,117.1c-2.6,0.7-5.2,1.4-8.3,2.2c-2.1-4.5-4.1-9-6.2-13.6
				C254.8,105.3,260.8,110.2,262.6,117.1z M239.8,106.9c1.5-0.5,3.5-2.6,4.8-0.1c2.3,4.4,4.1,9,6.1,13.6c0.1,0.2,0.1,0.4,0.4,1.1
				c-0.5,0.5-1.1,1.3-1.9,1.5c-1.6,0.4-6.8-2.7-7.6-4.3c-1.3-2.8-2.5-5.5-3.8-8.2C236.6,108.2,238.3,107.4,239.8,106.9z
				 M233.2,111.8c0.4,0,0.8,0,1.2,0.1c1.3,2.8,2.6,5.6,4.1,8.8c-2.6,0.8-4.9,1.5-7.2,2.3c-0.4-0.2-0.8-0.3-1.2-0.5
				C231.1,118.9,232.2,115.4,233.2,111.8z M239.8,124.8c9-0.1,15.8,6.8,16.2,14h-31.7C224.5,131.4,231.7,124.8,239.8,124.8z
				 M277.6,192.6h-51.8c-0.1-1.8-0.2-3.5-0.3-5.4h52.4C277.8,189.1,277.7,190.7,277.6,192.6z M278.3,182.9h-53.2
				c-0.8-10.4-1.5-20.7-2.3-31.4h57.7C279.8,161.9,279.1,172.2,278.3,182.9z M285.5,145c0.1,2.6-1.9,2.8-3.9,2.8
				c-20.1,0-40.1,0-60.2-0.1c-1.2,0-3.1-1-3.4-2c-0.7-2.3,0.9-2.9,3-2.9c5.1,0,10.2,0,15.3,0h15.3c10,0,20,0,29.9,0
				C283.4,142.7,285.4,142.5,285.5,145z M275.5,112.3c1.4-3,2.4-6.2,4.3-8.6c0.9-1.2,3.5-1.1,5.9-1.8
				C283.4,110.9,281.7,112.5,275.5,112.3z M63.7,194c-1.8,0.9-3.7,2-5.7,2.2c-1.4,0.1-3-1.2-4.5-1.8c0.6-1.1,1-2.5,1.9-3.2
				c2.9-2.6,6.2-4.8,9-7.4c1.2-1.1,2.3-3.2,2.2-4.7c-0.6-6.2-7.6-11.8-14.4-11.8c-6.6,0-11.4,4.4-12.5,11.3
				c-0.1,0.6-0.2,1.2-0.4,2.3c-3.5-4.8-8.3-6.3-12.8-7c2.4-2.8,4.8-5.7,7.4-8.6c2.9-3.3,2.7-5.4-1.5-7c-4.3-1.6-8.9-3.1-13.4-3.7
				c-3.6-0.5-7.4,0.1-10.9,0.9c-1.4,0.3-2.6,2.5-3.3,4.1c-0.2,0.4,1.7,2.3,2.9,2.5c2.4,0.6,2.8,2.2,2.9,4.1
				c0.2,3.7,0.3,7.5,0.5,11.2c0,0.8,0.4,1.7,0.6,2.5c1.6,5.5,3.3,11,4.7,16.5c0.7,2.6,0.8,5.3-1.3,7.7c-0.6,0.6-0.8,2.2-0.4,2.9
				c0.4,0.7,1.8,1.2,2.8,1.2c1.5-0.1,3.2-0.2,4.4-1.1c3.6-2.6,7.5-5.3,10.5-8.6c3.2-3.5,5.6-7.9,8.2-11.7c0.5,1.5,1,3.3,1.8,5.1
				c4.2,9.8,12.1,13,22,9.1c2.2-0.9,3.4-2.3,3.4-4.6C67.8,193.6,66.3,192.7,63.7,194z M17.3,164.7c1.4-1.1,2.5-2.7,3.3-2.6
				c1.6,0.3,3.1,1.5,4.6,2.3c-1.7,1.5-3.4,2.9-5,4.4C19.3,167.7,18.5,166.5,17.3,164.7z M30.9,190.2c-1.5,2.3-3.5,4.3-5.9,7.3
				c-1.4-5.3-2.7-9.5-3.6-13.8c-0.2-0.8,1.6-3,2-2.9c2.5,0.6,5.3,1.3,7.2,2.9C32.6,185.2,32.3,188.1,30.9,190.2z M50,184.8
				c-1.3-0.5-2.1-2.7-3.3-4.6c1.3-1.9,2-4.3,3.4-4.7c2-0.6,4.5,0,6.7,0.4c0.5,0.1,1.1,1.6,1.1,2.4C57.9,181.6,53,185.8,50,184.8z
				 M149.4,158.5c-2.2,6.2-5.1,12.2-6.8,18.6c-1.4,4.9-0.9,10.4-2.2,15.4c-1.1,4.5-3.1,8.8-5.2,12.9c-1.7,3.4-5.1,4.6-8.8,4.2
				c-3.3-0.4-5.1-2.6-5.6-5.6c-0.3-1.5,0.3-3.8,1.3-4.8c0.7-0.7,3,0.3,4.6,0.6c0.5,0.1,0.8,0.6,1.3,1.1c4.5-4.1,6.1-12.5,2.9-18
				c-4-6.9-4.9-14.5-6.7-21.9c-0.8-3.1,0.7-5.3,3.5-6c2.7-0.7,4.6,0.4,5.5,3.6c0.7,2.6,0.9,5.3,1.4,8c0.2,1.1,0.4,2.3,1.3,3.6
				c0.6-1.5,1.1-3.1,1.7-4.5c1.2-2.8,2.2-5.7,3.6-8.3c0.7-1.3,2.1-2.6,3.5-3.1c1.3-0.5,3.4-0.4,4.5,0.3
				C149.9,155,149.8,157.3,149.4,158.5z M176.4,187.6c-3.2,3.4-7.9,5.4-12.8,5.4c-4,0-7.1-1.5-9.5-4.7c-1.5-2.1-0.7-3.7,1-5.1
				c1.6-1.4,3.3-1.6,4.8,0.3c1.8,2.3,4,2.9,6.7,2c2.5-0.8,5.2-2.2,4.8-4.9c-0.2-1.6-2.7-3.3-4.6-4.2c-2.4-1.2-5.2-1.4-7.7-2.4
				c-3.6-1.4-7.3-3.2-7.9-7.4c-0.7-4.4,2.5-7.2,5.7-9.5c5.3-3.8,14.6-3.1,19.6,1.3c1.6,1.4,2.3,3.1,1.2,5.2c-1.1,2-2.9,2.1-4.8,1.4
				c-1.7-0.6-3.4-1.4-5.1-2.1c-0.5-0.2-1-0.4-1.5-0.6c-2.6-0.9-6.7,0.4-6.1,1.6c0.8,1.8,2.5,3.6,4.3,4.5c2.9,1.5,6.2,2,9.1,3.3
				C181,175.1,182.1,181.6,176.4,187.6z M91.4,167.2c-1.6,2.1-3.1,4.2-5.1,5.9c-4.2,3.7-6,8.3-5.8,13.8c0.1,1.3,0.9,2.6,1.7,3.7
				c1.9,2.9,2.1,6.6-0.4,8.9c-1.2,1.2-3.7,2.2-5,1.7c-1.5-0.5-3.2-2.6-3.6-4.3c-1.3-5.8-1.8-11.7-3-17.6c-0.5-2.7-1.7-5.3-2.8-7.9
				c-1.8-4.3-1.1-7.3,2.1-8.6c2.9-1.2,5.9,0.9,7.4,5c0.2,0.5,0.4,1,0.8,2c1.6-1.8,3-3.3,4.3-4.8c2.4-2.8,4.9-3.5,8.1-2.2
				C92.4,163.8,92.9,165.3,91.4,167.2z M117.9,164.6c-1.7,2.3-3.4,4.5-5.5,6.4c-4.1,3.5-4.9,8.2-5.1,13.1c0,1.1,0.9,2.4,1.6,3.4
				c2,3,2.3,6.1,0,8.7c-1.2,1.3-3.4,2.2-5.2,2.2c-2.1,0-3.5-1.8-3.8-4.2c-0.7-5.1-1.3-10.3-2.4-15.4c-0.7-3.6-2-7.1-3.4-10.5
				c-1.7-4.3-1-7.1,2.3-8.4c2.7-1,5.7,0.9,7.1,4.6c0.2,0.6,0.4,1.2,0.9,2.4c1.6-1.7,2.9-3.1,4.1-4.5c2-2.5,4.4-3.8,7.7-2.6
				C119.3,160.9,119.8,162.1,117.9,164.6z M187,136.2c-1-2.5-2.6-0.8-4-0.1c-2.4,1.2-4.8,2.3-7.2-1.1c2.8-2.3,5.5-4.2,7.9-6.5
				c1.2-1.1,2.4-2.8,2.4-4.3c0.1-4.6-5.5-9.2-10.6-9.2c-5.7,0-10,3.6-9.8,9c0.1,3.3,0.8,6.7,1.9,9.8c2.8,7.7,9.6,10.4,17.1,7.1
				C187,139.9,187.9,138.3,187,136.2z M171.9,124.9c-0.2-2.6,1.2-4,4.9-4.2c0.5,0.5,2.3,1.3,2.6,2.6c0.6,2.1-2.7,5.1-5.2,5.1
				C171.8,128.4,172,126.4,171.9,124.9z M166.2,136.5c-0.7,2.1-1.9,4.6-3.6,5.8c-7.9,5.4-19.4-0.1-20.6-9.5c-0.1-0.6-0.1-1.3-0.1-2
				c0.5-8,5.3-13.1,11.6-17.3c0.5-0.3,1.3-0.7,1.8-0.6c1.5,0.2,3,0.7,4.5,1c-0.5,1.5-0.7,3.3-1.6,4.6c-0.9,1.2-2.8,1.7-3.9,2.8
				c-2,2.2-4.1,4.4-5.3,7.1c-1.4,3.2,0.2,7,2.7,8.6c3.3,2.1,6.7,1.8,9.7-0.9c0.6-0.6,1.3-1.2,2.1-1.6
				C165.4,133.6,166.8,134.6,166.2,136.5z M139.8,144.8c-1,0.5-2.9,0.7-3.6,0.1c-1.4-1.2-2.9-2.9-3.1-4.5
				c-1.1-7.3-1.8-14.6-2.5-21.1c0.2-2.4,0.1-4.1,0.4-5.6c0.5-2.6,2.3-3.6,4.8-3.2c2.6,0.4,2.8,1.9,2.9,4.4
				c0.1,7.3,0.7,14.6,1.3,21.9c0.1,1.7,0.7,3.4,0.7,5.1C140.7,142.8,140.5,144.4,139.8,144.8z M281.6,142.7c-10,0-20,0-29.9,0h-15.3
				c5.1,0,10.2,0,15.3,0H281.6z M252,157.1c-5.5-0.1-10.2,4.3-10.5,9.9c-0.3,5.6,4.3,10.4,10.1,10.6c5.5,0.2,10.2-4.2,10.5-9.8
				C262.3,162.1,257.6,157.2,252,157.1z M251.6,173.9c-3.7,0-6.5-2.9-6.4-6.7c0-3.7,2.9-6.5,6.7-6.4c3.8,0,6.5,2.8,6.4,6.6
				C258.2,171.2,255.4,173.9,251.6,173.9z M241.7,130c0.1,0.7-0.7,1.5-1.4,2.8c-1-1.2-1.9-1.9-1.9-2.5c0-0.6,1-1.5,1.7-1.7
				C240.5,128.5,241.7,129.5,241.7,130z M274.5,133.9c-0.6,0.5-1.7,1.4-1.8,1.3c-1.2-1-2.3-2.2-3.3-3.4c-0.1-0.1,0.9-1.1,1.9-2.2
				C272.5,131.4,273.5,132.6,274.5,133.9z M266.1,127.1c-0.7,1.3-1.8,2.4-3.1,4c-0.9-1.2-1.8-2.3-1.7-2.4c1-1.2,2.2-2.3,3.4-3.4
				C265.2,125.9,266.3,126.9,266.1,127.1z"/>
		</defs>
		<clipPath id="SVGID_00000029034587765840455930000017943571191045786516_">
			<use xlink:href="#SVGID_1_"  style="overflow:visible;"/>
		</clipPath>
		
			<linearGradient id="SVGID_00000144296929807626671250000013536528787037637048_" gradientUnits="userSpaceOnUse" x1="292.9825" y1="211.5362" x2="215.2111" y2="76.8322">
			<stop  offset="0" style="stop-color:#F2C9E0"/>
			<stop  offset="0.352" style="stop-color:#BF5E8B"/>
			<stop  offset="0.5642" style="stop-color:#A658A1"/>
			<stop  offset="1" style="stop-color:#BF0436"/>
		</linearGradient>
		
			<rect x="211.9" y="78.7" style="clip-path:url(#SVGID_00000029034587765840455930000017943571191045786516_);fill:url(#SVGID_00000144296929807626671250000013536528787037637048_);" width="84.4" height="130.9"/>
		
			<linearGradient id="SVGID_00000101798608696171191750000002992560719368675751_" gradientUnits="userSpaceOnUse" x1="153.6048" y1="255.5023" x2="51.5521" y2="78.7418">
			<stop  offset="0" style="stop-color:#F2C9E0"/>
			<stop  offset="0.352" style="stop-color:#BF5E8B"/>
			<stop  offset="0.5642" style="stop-color:#A658A1"/>
			<stop  offset="1" style="stop-color:#BF0436"/>
		</linearGradient>
		
			<rect x="4.9" y="105.7" style="clip-path:url(#SVGID_00000029034587765840455930000017943571191045786516_);fill:url(#SVGID_00000101798608696171191750000002992560719368675751_);" width="195.4" height="122.9"/>
	</g>
</g>
</svg>
